<svg width="55" height="55" viewBox="0 0 55 55" fill="none" xmlns="http://www.w3.org/2000/svg">
<rect y="0.15686" width="55" height="54" rx="27" fill="url(#paint0_linear_72_3332)"/>
<path d="M27.5 12.1569C19.235 12.1569 12.5 18.8919 12.5 27.1569C12.5 35.4219 19.235 42.1569 27.5 42.1569C35.7649 42.1569 42.4999 35.4219 42.4999 27.1569C42.4999 18.8919 35.7649 12.1569 27.5 12.1569ZM34.6699 23.7069L26.165 32.2119C25.955 32.4219 25.67 32.5419 25.37 32.5419C25.07 32.5419 24.785 32.4219 24.575 32.2119L20.33 27.9669C19.895 27.5319 19.895 26.8119 20.33 26.3769C20.765 25.9419 21.485 25.9419 21.92 26.3769L25.37 29.8269L33.0799 22.1169C33.5149 21.6819 34.2349 21.6819 34.6699 22.1169C35.1049 22.5519 35.1049 23.2569 34.6699 23.7069Z" fill="white"/>
<defs>
<linearGradient id="paint0_linear_72_3332" x1="49.5455" y1="50.3319" x2="8.87897" y2="3.12706" gradientUnits="userSpaceOnUse">
<stop stop-color="#007CBD"/>
<stop offset="1" stop-color="#3EB7DD"/>
</linearGradient>
</defs>
</svg>
