<svg width="55" height="55" viewBox="0 0 55 55" fill="none" xmlns="http://www.w3.org/2000/svg">
<rect y="0.15686" width="55" height="54" rx="27" fill="url(#paint0_linear_72_3342)"/>
<path d="M39.5928 15.9709H15.407C14.9112 15.9709 14.5 15.5597 14.5 15.0639C14.5 14.5681 14.9112 14.157 15.407 14.157H39.5928C40.0886 14.157 40.4998 14.5681 40.4998 15.0639C40.4998 15.5597 40.0886 15.9709 39.5928 15.9709Z" fill="white"/>
<path d="M33.1477 39.661C32.9905 39.9754 32.664 40.1568 32.3374 40.1568C32.2044 40.1568 32.0593 40.1205 31.9384 40.06L27.5003 37.847L23.0621 40.06C22.9412 40.1205 22.7961 40.1568 22.6631 40.1568C22.3366 40.1568 22.01 39.9754 21.8528 39.661C21.6231 39.2014 21.8045 38.6572 22.264 38.4396L26.5933 36.2749V33.2033H28.4072V36.2749L32.7365 38.4396C33.196 38.6572 33.3774 39.2014 33.1477 39.661Z" fill="white"/>
<path d="M16.6162 15.0639V29.6964C16.6162 31.994 17.8255 33.2033 20.1232 33.2033H34.8765C37.1742 33.2033 38.3835 31.994 38.3835 29.6964V15.0639H16.6162ZM33.5221 23.0211L29.7128 26.2015C29.3622 26.4917 28.9147 26.6127 28.4915 26.5401C28.0561 26.4676 27.6812 26.2015 27.4515 25.8145L26.1817 23.6983L22.6385 26.649C22.4692 26.7941 22.2636 26.8545 22.058 26.8545C21.8041 26.8545 21.538 26.7457 21.3566 26.528C21.0301 26.1411 21.0906 25.5727 21.4776 25.2462L25.2868 22.0657C25.6375 21.7755 26.085 21.6546 26.5082 21.7271C26.9436 21.7997 27.3184 22.0657 27.5482 22.4527L28.818 24.569L32.3612 21.6183C32.7482 21.2918 33.3165 21.3523 33.643 21.7392C33.9575 22.1262 33.9091 22.6946 33.5221 23.0211Z" fill="white"/>
<defs>
<linearGradient id="paint0_linear_72_3342" x1="49.5455" y1="50.3319" x2="8.87897" y2="3.12706" gradientUnits="userSpaceOnUse">
<stop stop-color="#007CBD"/>
<stop offset="1" stop-color="#3EB7DD"/>
</linearGradient>
</defs>
</svg>
