<svg width="23" height="20" viewBox="0 0 23 20" fill="none" xmlns="http://www.w3.org/2000/svg">
<path d="M21.4691 1.07843L22.4669 1.01228C22.4403 0.611133 22.1761 0.264919 21.7962 0.13343C21.4163 0.00194037 20.9946 0.110745 20.7257 0.409624L21.4691 1.07843ZM21.0428 5.30544C21.0428 4.75315 20.5951 4.30544 20.0428 4.30544C19.4905 4.30544 19.0428 4.75315 19.0428 5.30544H21.0428ZM11.5 6.57843V7.57843H12.5V6.57843H11.5ZM2.92637 1.07843L3.86287 0.727782C3.72334 0.35511 3.37612 0.100638 2.97873 0.0798019C2.58133 0.058966 2.20941 0.275733 2.03166 0.631769L2.92637 1.07843ZM8.5 14.0784L9.20766 14.785C9.45238 14.5399 9.55284 14.1856 9.47321 13.8485C9.39358 13.5114 9.1452 13.2396 8.81667 13.1299L8.5 14.0784ZM1.5 16.7927V15.7927C1.05946 15.7927 0.670822 16.081 0.543011 16.5026C0.415201 16.9242 0.578333 17.3797 0.944707 17.6244L1.5 16.7927ZM18.9515 2.46897L18.2098 3.13966L18.5701 3.53815L19.1013 3.4577L18.9515 2.46897ZM20.4713 1.14458C20.544 2.24137 20.4734 2.87022 20.3125 3.3237C20.1591 3.75628 19.8897 4.12582 19.3509 4.64212L20.7346 6.08617C21.3745 5.47303 21.8944 4.84675 22.1974 3.99235C22.4931 3.15886 22.5463 2.20957 22.4669 1.01228L20.4713 1.14458ZM21.0428 6.34628V5.36414H19.0428V6.34628H21.0428ZM21.0428 5.36414V5.30544H19.0428V5.36414H21.0428ZM10.5 5.57843V6.57843H12.5V5.57843H10.5ZM15.8223 0.0784302C12.8235 0.0784302 10.5 2.67909 10.5 5.57843H12.5C12.5 3.67905 14.0298 2.07843 15.8223 2.07843V0.0784302ZM19.0428 6.34628C19.0428 12.3721 13.9765 17.5784 8 17.5784V19.5784C15.1201 19.5784 21.0428 13.4372 21.0428 6.34628H19.0428ZM1.98986 1.42908C2.80654 3.61027 5.83814 7.57843 11.5 7.57843V5.57843C6.89202 5.57843 4.47256 2.35611 3.86287 0.727782L1.98986 1.42908ZM2.03166 0.631769C0.511097 3.6776 0.226447 6.70131 1.31373 9.30328C2.40104 11.9053 4.77867 13.8903 8.18333 15.027L8.81667 13.1299C5.80268 12.1237 3.96713 10.4658 3.1591 8.53216C2.35104 6.59841 2.4889 4.19354 3.82107 1.52509L2.03166 0.631769ZM7.79234 13.3719C6.98383 14.1817 4.60002 15.7927 1.5 15.7927V17.7927C5.24654 17.7927 8.11438 15.88 9.20766 14.785L7.79234 13.3719ZM19.6933 1.79829C18.7396 0.743615 17.358 0.0784302 15.8223 0.0784302V2.07843C16.7687 2.07843 17.6189 2.48623 18.2098 3.13966L19.6933 1.79829ZM19.1013 3.4577C20.2557 3.28286 21.3748 2.67845 22.2126 1.74724L20.7257 0.409624C20.1856 1.01004 19.4805 1.37745 18.8018 1.48025L19.1013 3.4577ZM0.944707 17.6244C3.30076 19.1975 5.57113 19.5784 8 19.5784V17.5784C5.81913 17.5784 3.97834 17.2451 2.05529 15.9611L0.944707 17.6244Z" fill="#007CBD"/>
</svg>
